<svg width="40" height="40" viewBox="0 0 40 40" fill="none" xmlns="http://www.w3.org/2000/svg">
<path d="M19.9999 4.37499C16.9096 4.37499 13.8887 5.29138 11.3191 7.00828C8.74963 8.72518 6.74693 11.1655 5.56431 14.0206C4.38169 16.8757 4.07227 20.0173 4.67516 23.0483C5.27806 26.0792 6.76619 28.8633 8.95139 31.0485C11.1366 33.2337 13.9207 34.7219 16.9516 35.3248C19.9826 35.9277 23.1243 35.6182 25.9794 34.4356C28.8345 33.253 31.2747 31.2503 32.9916 28.6808C34.7085 26.1113 35.6249 23.0903 35.6249 20C35.6204 15.8574 33.9727 11.8857 31.0435 8.95647C28.1142 6.0272 24.1425 4.37954 19.9999 4.37499ZM19.9999 31.875C17.6513 31.875 15.3554 31.1785 13.4025 29.8737C11.4497 28.5689 9.92765 26.7142 9.02886 24.5444C8.13007 22.3745 7.89491 19.9868 8.35311 17.6833C8.81131 15.3798 9.94229 13.2638 11.603 11.6031C13.2638 9.94235 15.3797 8.81137 17.6832 8.35317C19.9868 7.89497 22.3744 8.13013 24.5443 9.02892C26.7142 9.92771 28.5688 11.4498 29.8736 13.4026C31.1785 15.3554 31.8749 17.6513 31.8749 20C31.8716 23.1484 30.6194 26.167 28.3932 28.3932C26.1669 30.6195 23.1484 31.8717 19.9999 31.875ZM5.07649 10.0766C4.90208 10.251 4.69503 10.3893 4.46715 10.4837C4.23927 10.5781 3.99503 10.6267 3.74837 10.6267C3.50171 10.6267 3.25747 10.5781 3.02959 10.4837C2.80171 10.3893 2.59466 10.251 2.42024 10.0766C2.24583 9.90214 2.10748 9.69509 2.01309 9.46721C1.9187 9.23933 1.87012 8.99509 1.87012 8.74843C1.87012 8.50178 1.9187 8.25753 2.01309 8.02965C2.10748 7.80177 2.24583 7.59472 2.42024 7.42031L7.42024 2.42031C7.77249 2.06806 8.25023 1.87018 8.74837 1.87018C9.24651 1.87018 9.72425 2.06806 10.0765 2.42031C10.4287 2.77255 10.6266 3.25029 10.6266 3.74843C10.6266 4.24657 10.4287 4.72432 10.0765 5.07656L5.07649 10.0766ZM37.5765 10.0766C37.4023 10.2514 37.1953 10.39 36.9674 10.4847C36.7395 10.5793 36.4951 10.628 36.2484 10.628C36.0016 10.628 35.7572 10.5793 35.5293 10.4847C35.3014 10.39 35.0944 10.2514 34.9202 10.0766L29.9202 5.07656C29.568 4.72432 29.3701 4.24657 29.3701 3.74843C29.3701 3.25029 29.568 2.77255 29.9202 2.42031C30.2725 2.06806 30.7502 1.87018 31.2484 1.87018C31.7465 1.87018 32.2243 2.06806 32.5765 2.42031L37.5765 7.42031C37.7513 7.5945 37.89 7.80149 37.9846 8.0294C38.0793 8.25731 38.128 8.50165 38.128 8.74843C38.128 8.99521 38.0793 9.23956 37.9846 9.46747C37.89 9.69538 37.7513 9.90236 37.5765 10.0766ZM27.4999 18.125C27.9972 18.125 28.4741 18.3225 28.8258 18.6742C29.1774 19.0258 29.3749 19.5027 29.3749 20C29.3749 20.4973 29.1774 20.9742 28.8258 21.3258C28.4741 21.6774 27.9972 21.875 27.4999 21.875H19.9999C19.5027 21.875 19.0257 21.6774 18.6741 21.3258C18.3225 20.9742 18.1249 20.4973 18.1249 20V12.5C18.1249 12.0027 18.3225 11.5258 18.6741 11.1742C19.0257 10.8225 19.5027 10.625 19.9999 10.625C20.4972 10.625 20.9741 10.8225 21.3258 11.1742C21.6774 11.5258 21.8749 12.0027 21.8749 12.5V18.125H27.4999Z" fill="white"/>
</svg>
