<svg width="28" height="28" viewBox="0 0 28 28" fill="none" xmlns="http://www.w3.org/2000/svg">
<path d="M19.4886 5.38292C16.7807 6.77848 13.8095 7.73409 10.6692 8.15575C9.46965 8.3168 8.24502 8.40002 7.00039 8.40002C3.9076 8.40002 1.40039 10.9072 1.40039 14C1.40039 16.8538 3.53507 19.209 6.29475 19.556C6.70334 21.1488 7.2941 22.7176 8.07425 24.2338C8.62943 25.3127 9.95301 25.6321 10.9451 25.0593L12.1575 24.3593C13.1746 23.7721 13.4742 22.5098 12.9816 21.5295C12.7491 21.0668 12.54 20.598 12.3539 20.1245C14.8744 20.6256 17.2698 21.4737 19.4886 22.6171C20.4668 19.9287 21.0004 17.0266 21.0004 14C21.0004 10.9734 20.4668 8.07137 19.4886 5.38292Z" fill="white"/>
<path d="M21.3403 4.33519C22.4778 7.33958 23.1004 10.5971 23.1004 14C23.1004 17.4029 22.4778 20.6605 21.3402 23.6648C21.3403 23.6649 21.3402 23.6648 21.3402 23.6648L21.2993 23.773C21.0917 24.3144 21.3623 24.9217 21.9037 25.1294C22.4452 25.337 23.0524 25.0664 23.2601 24.525C23.3806 24.2107 23.4959 23.8938 23.6059 23.5744C24.3816 21.3211 24.8911 18.9443 25.097 16.482C25.9907 16.0144 26.6004 15.079 26.6004 14C26.6004 12.921 25.9907 11.9857 25.097 11.518C24.8911 9.0558 24.3816 6.67898 23.6059 4.4256C23.4959 4.10623 23.3806 3.78935 23.2601 3.47508C23.0524 2.93363 22.4452 2.66304 21.9037 2.87069C21.3623 3.07834 21.0917 3.68561 21.2993 4.22705L21.3403 4.33519C21.3402 4.33524 21.3403 4.33514 21.3403 4.33519Z" fill="white"/>
</svg>
