<svg width="182" height="50" viewBox="0 0 182 50" fill="none" xmlns="http://www.w3.org/2000/svg">
<path d="M19.4272 11.6119H25.5022V38.1647C25.5022 40.6453 24.9622 42.7463 23.8822 44.4675C22.8191 46.2056 21.3256 47.5219 19.4019 48.4163C17.4781 49.3275 15.2422 49.7831 12.6941 49.7831C11.5972 49.7831 10.4075 49.6313 9.125 49.3275C7.85938 49.0238 6.63594 48.5428 5.45469 47.8847C4.29031 47.2434 3.32 46.4081 2.54375 45.3788L5.55594 41.43C6.46719 42.4931 7.49656 43.2947 8.64406 43.8347C9.79156 44.3916 11.0319 44.67 12.365 44.67C13.715 44.67 14.8625 44.4169 15.8075 43.9106C16.7694 43.4213 17.5034 42.6956 18.0097 41.7338C18.5328 40.7888 18.7944 39.6244 18.7944 38.2406V17.8641L19.4272 11.6119ZM0.92375 25.635V25.1034C0.92375 23.0109 1.17688 21.1125 1.68313 19.4081C2.18938 17.6869 2.915 16.2103 3.86 14.9784C4.82188 13.7466 5.97781 12.7931 7.32781 12.1181C8.69469 11.4431 10.2303 11.1056 11.9347 11.1056C13.7403 11.1056 15.2591 11.4347 16.4909 12.0928C17.7397 12.7509 18.7691 13.6875 19.5791 14.9025C20.4059 16.1175 21.0472 17.5603 21.5028 19.2309C21.9753 20.8847 22.3381 22.7072 22.5913 24.6984V26.1412C22.355 28.0819 21.9753 29.8622 21.4522 31.4822C20.9459 33.1022 20.2709 34.5197 19.4272 35.7347C18.5834 36.9328 17.5372 37.8609 16.2884 38.5191C15.0397 39.1772 13.5716 39.5063 11.8841 39.5063C10.1966 39.5063 8.67781 39.1603 7.32781 38.4684C5.97781 37.7766 4.82188 36.8062 3.86 35.5575C2.915 34.3087 2.18938 32.8406 1.68313 31.1531C1.17688 29.4656 0.92375 27.6262 0.92375 25.635ZM7.60625 25.1034V25.635C7.60625 26.8162 7.72438 27.9216 7.96063 28.9509C8.19688 29.9803 8.55969 30.8916 9.04906 31.6847C9.53844 32.4609 10.1544 33.0684 10.8969 33.5072C11.6394 33.9459 12.5253 34.1653 13.5547 34.1653C14.9384 34.1653 16.0691 33.8784 16.9466 33.3047C17.8409 32.7141 18.5159 31.9125 18.9716 30.9C19.4441 29.8706 19.7478 28.7147 19.8828 27.4322V23.4581C19.7984 22.4456 19.6128 21.5091 19.3259 20.6484C19.0559 19.7878 18.6763 19.0453 18.1869 18.4209C17.6975 17.7966 17.0731 17.3072 16.3138 16.9528C15.5544 16.5984 14.6516 16.4212 13.6053 16.4212C12.5928 16.4212 11.7069 16.6491 10.9475 17.1047C10.1881 17.5434 9.56375 18.1594 9.07438 18.9525C8.585 19.7456 8.21375 20.6653 7.96063 21.7116C7.72438 22.7578 7.60625 23.8884 7.60625 25.1034ZM38.6141 0.119997V39H31.9063V0.119997H38.6141ZM43.8031 25.5844V25.0528C43.8031 23.0447 44.09 21.1969 44.6638 19.5094C45.2375 17.805 46.0728 16.3284 47.1697 15.0797C48.2666 13.8309 49.6081 12.8606 51.1944 12.1687C52.7806 11.46 54.5863 11.1056 56.6113 11.1056C58.67 11.1056 60.4925 11.46 62.0788 12.1687C63.6819 12.8606 65.0319 13.8309 66.1288 15.0797C67.2256 16.3284 68.0609 17.805 68.6347 19.5094C69.2084 21.1969 69.4953 23.0447 69.4953 25.0528V25.5844C69.4953 27.5756 69.2084 29.4234 68.6347 31.1278C68.0609 32.8153 67.2256 34.2919 66.1288 35.5575C65.0319 36.8062 63.6903 37.7766 62.1041 38.4684C60.5178 39.1603 58.7038 39.5063 56.6619 39.5063C54.6369 39.5063 52.8228 39.1603 51.2197 38.4684C49.6166 37.7766 48.2666 36.8062 47.1697 35.5575C46.0728 34.2919 45.2375 32.8153 44.6638 31.1278C44.09 29.4234 43.8031 27.5756 43.8031 25.5844ZM50.4856 25.0528V25.5844C50.4856 26.7825 50.6038 27.9047 50.84 28.9509C51.0763 29.9972 51.4391 30.9169 51.9284 31.71C52.4178 32.5031 53.0506 33.1275 53.8269 33.5831C54.62 34.0219 55.565 34.2412 56.6619 34.2412C57.7419 34.2412 58.67 34.0219 59.4463 33.5831C60.2225 33.1275 60.8553 32.5031 61.3447 31.71C61.8509 30.9169 62.2222 29.9972 62.4584 28.9509C62.6947 27.9047 62.8128 26.7825 62.8128 25.5844V25.0528C62.8128 23.8716 62.6947 22.7662 62.4584 21.7369C62.2222 20.6906 61.8509 19.7709 61.3447 18.9778C60.8553 18.1678 60.2141 17.535 59.4209 17.0794C58.6447 16.6069 57.7081 16.3706 56.6113 16.3706C55.5313 16.3706 54.6031 16.6069 53.8269 17.0794C53.0506 17.535 52.4178 18.1678 51.9284 18.9778C51.4391 19.7709 51.0763 20.6906 50.84 21.7369C50.6038 22.7662 50.4856 23.8716 50.4856 25.0528ZM74.33 0.119997H81.0378V32.9503L80.3797 39H74.33V0.119997ZM98.6553 25.0275V25.5591C98.6553 27.6009 98.4275 29.4741 97.9719 31.1784C97.5331 32.8828 96.8666 34.3594 95.9722 35.6081C95.0778 36.84 93.9641 37.8019 92.6309 38.4937C91.3147 39.1688 89.7706 39.5063 87.9988 39.5063C86.3113 39.5063 84.8431 39.1772 83.5944 38.5191C82.3625 37.8609 81.3247 36.9328 80.4809 35.7347C79.6372 34.5197 78.9622 33.0937 78.4559 31.4569C77.9497 29.8031 77.57 27.9975 77.3169 26.04V24.5972C77.57 22.6228 77.9497 20.8172 78.4559 19.1803C78.9622 17.5434 79.6372 16.1175 80.4809 14.9025C81.3247 13.6875 82.3625 12.7509 83.5944 12.0928C84.8263 11.4347 86.2775 11.1056 87.9481 11.1056C89.7369 11.1056 91.2978 11.4516 92.6309 12.1434C93.9809 12.8184 95.0947 13.7803 95.9722 15.0291C96.8666 16.2609 97.5331 17.7291 97.9719 19.4334C98.4275 21.1209 98.6553 22.9856 98.6553 25.0275ZM91.9475 25.5591V25.0275C91.9475 23.8631 91.8547 22.7662 91.6691 21.7369C91.4834 20.6906 91.1797 19.7709 90.7578 18.9778C90.3359 18.1847 89.7622 17.5603 89.0366 17.1047C88.3109 16.6491 87.3997 16.4212 86.3028 16.4212C85.2566 16.4212 84.3622 16.5984 83.6197 16.9528C82.8941 17.3072 82.2866 17.7966 81.7972 18.4209C81.3247 19.0453 80.9534 19.7794 80.6834 20.6231C80.4303 21.4669 80.2616 22.3781 80.1772 23.3569V27.3056C80.2953 28.605 80.5738 29.7778 81.0125 30.8241C81.4513 31.8534 82.1009 32.6719 82.9616 33.2794C83.8391 33.8869 84.9697 34.1906 86.3534 34.1906C87.4334 34.1906 88.3363 33.9797 89.0619 33.5578C89.7875 33.1191 90.3613 32.5116 90.7831 31.7353C91.205 30.9422 91.5003 30.0225 91.6691 28.9762C91.8547 27.93 91.9475 26.7909 91.9475 25.5591ZM118.602 33.1781V20.5472C118.602 19.6191 118.441 18.8175 118.121 18.1425C117.8 17.4675 117.311 16.9444 116.653 16.5731C115.994 16.2019 115.159 16.0162 114.147 16.0162C113.252 16.0162 112.468 16.1681 111.793 16.4719C111.134 16.7756 110.628 17.2059 110.274 17.7628C109.919 18.3028 109.742 18.9272 109.742 19.6359H103.034C103.034 18.5053 103.304 17.4337 103.844 16.4212C104.384 15.3919 105.152 14.4806 106.148 13.6875C107.16 12.8775 108.367 12.2447 109.768 11.7891C111.185 11.3334 112.771 11.1056 114.526 11.1056C116.602 11.1056 118.45 11.46 120.07 12.1687C121.707 12.8606 122.989 13.9069 123.917 15.3075C124.862 16.7081 125.335 18.4716 125.335 20.5978V32.5453C125.335 33.9122 125.419 35.085 125.588 36.0637C125.773 37.0256 126.043 37.8609 126.398 38.5697V39H119.589C119.268 38.3081 119.023 37.4306 118.855 36.3675C118.686 35.2875 118.602 34.2244 118.602 33.1781ZM119.538 22.3191L119.589 26.2931H115.362C114.315 26.2931 113.396 26.4028 112.603 26.6222C111.809 26.8247 111.16 27.1284 110.653 27.5334C110.147 27.9216 109.768 28.3941 109.514 28.9509C109.261 29.4909 109.135 30.1069 109.135 30.7987C109.135 31.4737 109.287 32.0812 109.59 32.6212C109.911 33.1612 110.367 33.5916 110.957 33.9122C111.565 34.2159 112.273 34.3678 113.083 34.3678C114.265 34.3678 115.294 34.1316 116.172 33.6591C117.049 33.1697 117.733 32.5791 118.222 31.8872C118.711 31.1953 118.973 30.5372 119.007 29.9128L120.93 32.7984C120.694 33.4903 120.34 34.2244 119.867 35.0006C119.395 35.7769 118.787 36.5025 118.045 37.1775C117.302 37.8525 116.408 38.4094 115.362 38.8481C114.315 39.2869 113.1 39.5063 111.717 39.5063C109.945 39.5063 108.358 39.1519 106.958 38.4431C105.557 37.7344 104.452 36.7641 103.642 35.5322C102.832 34.3003 102.427 32.8997 102.427 31.3303C102.427 29.8791 102.697 28.5966 103.237 27.4828C103.777 26.3691 104.578 25.4325 105.642 24.6731C106.705 23.8969 108.021 23.3147 109.59 22.9266C111.177 22.5216 112.991 22.3191 115.033 22.3191H119.538ZM138.447 0.119997V39H131.739V0.119997H138.447ZM151.913 11.6119V39H145.205V11.6119H151.913ZM144.749 4.44843C144.749 3.45281 145.087 2.62593 145.762 1.96781C146.454 1.30968 147.382 0.980622 148.546 0.980622C149.711 0.980622 150.63 1.30968 151.305 1.96781C151.997 2.62593 152.343 3.45281 152.343 4.44843C152.343 5.42718 151.997 6.24562 151.305 6.90375C150.63 7.56187 149.711 7.89094 148.546 7.89094C147.382 7.89094 146.454 7.56187 145.762 6.90375C145.087 6.24562 144.749 5.42718 144.749 4.44843ZM164.848 17.4591V39H158.165V11.6119H164.443L164.848 17.4591ZM163.784 24.3187H161.81C161.827 22.3275 162.097 20.5219 162.62 18.9019C163.143 17.2819 163.877 15.8897 164.822 14.7253C165.784 13.5609 166.923 12.6666 168.239 12.0422C169.556 11.4178 171.024 11.1056 172.644 11.1056C173.96 11.1056 175.15 11.2912 176.213 11.6625C177.276 12.0337 178.187 12.6244 178.947 13.4344C179.723 14.2444 180.313 15.3075 180.718 16.6237C181.14 17.9231 181.351 19.5262 181.351 21.4331V39H174.618V21.3825C174.618 20.1337 174.433 19.1466 174.061 18.4209C173.707 17.6953 173.184 17.1806 172.492 16.8769C171.817 16.5731 170.982 16.4212 169.986 16.4212C168.957 16.4212 168.054 16.6322 167.278 17.0541C166.518 17.4591 165.877 18.0244 165.354 18.75C164.848 19.4756 164.459 20.3109 164.189 21.2559C163.919 22.2009 163.784 23.2219 163.784 24.3187Z" fill="white"/>
</svg>
