<svg width="186" height="79" viewBox="0 0 186 79" fill="none" xmlns="http://www.w3.org/2000/svg">
<path d="M62.2481 58.1206H72.3569V59.9523H62.2481V58.1206ZM60.4682 64.3242H74.9662V66.1558H60.4682V64.3242ZM70.9918 58.1206H73.2727V59.503C73.2727 60.2634 73.2497 61.087 73.2036 61.9741C73.169 62.8611 73.025 63.8806 72.7716 65.0326L70.5079 64.8253C70.7498 63.6963 70.8881 62.7171 70.9226 61.8877C70.9687 61.0467 70.9918 60.2518 70.9918 59.503V58.1206ZM62.2826 71.1325H73.722V72.9642H62.2826V71.1325ZM62.2826 67.521H64.5636V71.3053H62.2826V67.521ZM76.8829 67.711H78.0061C78.7895 67.711 79.4864 67.7053 80.097 67.6938C80.7191 67.6707 81.3123 67.6419 81.8768 67.6074C82.4528 67.5613 83.0346 67.4922 83.6221 67.4L83.8122 69.249C83.2131 69.3526 82.6199 69.4333 82.0323 69.4909C81.4448 69.537 80.8285 69.5658 80.1834 69.5773C79.5383 69.5888 78.8125 69.5946 78.0061 69.5946H76.8829V67.711ZM76.8829 58.8982H83.3456V60.7299H79.0775V68.4714H76.8829V58.8982ZM78.4381 63.0973H83.0346V64.8598H78.4381V63.0973ZM87.9075 57.2394H90.1021V73.2406H87.9075V57.2394ZM85.9895 63.4429H88.6506V65.2918H85.9895V63.4429ZM84.4688 57.4986H86.6115V72.5322H84.4688V57.4986ZM97.2724 58.4144H104.115V60.2461H97.2724V58.4144ZM99.2423 62.1469H101.506V66.1386H99.2423V62.1469ZM103.217 58.4144H105.48V59.4166C105.48 59.9811 105.463 60.655 105.429 61.4384C105.405 62.2102 105.296 63.103 105.1 64.1168L102.871 63.8576C103.044 62.8784 103.142 62.0317 103.165 61.3174C103.199 60.6032 103.217 59.9696 103.217 59.4166V58.4144ZM107.018 57.2394H109.334V69.2144H107.018V57.2394ZM108.418 62.1296H111.252V64.0131H108.418V62.1296ZM98.6548 71.1325H109.852V72.9814H98.6548V71.1325ZM98.6548 68.1603H100.97V71.7027H98.6548V68.1603ZM96.5293 67.089L96.322 65.2573C97.2436 65.2573 98.2631 65.2515 99.3805 65.24C100.498 65.217 101.638 65.1709 102.802 65.1018C103.965 65.0211 105.083 64.9059 106.154 64.7562L106.31 66.3978C105.204 66.5936 104.075 66.7434 102.923 66.847C101.771 66.9392 100.648 67.0026 99.5533 67.0371C98.4589 67.0602 97.4509 67.0774 96.5293 67.089ZM123.467 57.2221H125.783V73.2752H123.467V57.2221ZM113.324 67.6765H114.741C115.686 67.6765 116.579 67.665 117.419 67.6419C118.26 67.6074 119.084 67.5555 119.891 67.4864C120.697 67.4058 121.521 67.2906 122.362 67.1408L122.603 68.9898C121.313 69.2202 120.04 69.3757 118.785 69.4563C117.54 69.5254 116.193 69.56 114.741 69.56H113.324V67.6765ZM113.29 58.5872H120.841V64.7907H115.657V68.385H113.324V62.9763H118.508V60.4362H113.29V58.5872ZM136.547 58.4835H138.431V60.799C138.431 61.8358 138.339 62.8323 138.155 63.7885C137.97 64.7331 137.688 65.6202 137.308 66.4496C136.939 67.2675 136.461 67.9933 135.874 68.6269C135.298 69.249 134.612 69.7443 133.817 70.113L132.452 68.2122C133.155 67.9011 133.76 67.4922 134.267 66.9853C134.785 66.4669 135.211 65.8794 135.545 65.2227C135.879 64.5546 136.127 63.8461 136.288 63.0973C136.461 62.3485 136.547 61.5824 136.547 60.799V58.4835ZM136.997 58.4835H138.863V60.799C138.863 61.5478 138.944 62.2794 139.105 62.9936C139.266 63.7078 139.508 64.3818 139.831 65.0154C140.165 65.649 140.579 66.2134 141.075 66.7088C141.582 67.1926 142.175 67.5786 142.855 67.8666L141.524 69.7328C140.752 69.3757 140.078 68.8976 139.502 68.2986C138.938 67.6995 138.471 67.0083 138.103 66.225C137.734 65.4301 137.458 64.5776 137.273 63.6675C137.089 62.7459 136.997 61.7898 136.997 60.799V58.4835ZM143.632 57.2221H145.931V73.2752H143.632V57.2221ZM154.5 58.1725H156.487V59.3302C156.487 60.0214 156.389 60.6954 156.194 61.352C156.009 61.9971 155.733 62.6077 155.364 63.1837C154.995 63.7597 154.54 64.2838 153.999 64.7562C153.469 65.217 152.858 65.6144 152.167 65.9485C151.476 66.2826 150.716 66.5302 149.886 66.6915L148.901 64.7734C149.616 64.6467 150.266 64.4566 150.854 64.2032C151.453 63.9382 151.977 63.6214 152.426 63.2528C152.876 62.8842 153.256 62.4867 153.567 62.0605C153.878 61.6227 154.108 61.1734 154.258 60.7126C154.419 60.2403 154.5 59.7795 154.5 59.3302V58.1725ZM154.949 58.1725H156.954V59.3302C156.954 59.791 157.029 60.2576 157.178 60.7299C157.34 61.2022 157.57 61.6573 157.87 62.095C158.181 62.5213 158.561 62.913 159.01 63.2701C159.459 63.6272 159.978 63.9382 160.565 64.2032C161.153 64.4566 161.815 64.6467 162.553 64.7734L161.568 66.6915C160.738 66.5302 159.978 66.2826 159.287 65.9485C158.595 65.6144 157.979 65.217 157.438 64.7562C156.908 64.2954 156.453 63.777 156.073 63.201C155.704 62.625 155.422 62.0086 155.226 61.352C155.042 60.6954 154.949 60.0214 154.949 59.3302V58.1725ZM148.556 69.4218H163.054V71.3053H148.556V69.4218ZM171.208 61.0928H173.628V62.9418H171.208V61.0928ZM165.057 64.376H166.163C166.923 64.376 167.603 64.3702 168.202 64.3587C168.812 64.3357 169.394 64.3011 169.947 64.255C170.5 64.1974 171.07 64.1226 171.658 64.0304L171.848 65.8275C171.249 65.9312 170.661 66.0118 170.085 66.0694C169.521 66.1155 168.922 66.1501 168.288 66.1731C167.655 66.1846 166.946 66.1904 166.163 66.1904H165.057V64.376ZM165.057 58.1898H171.088V60.0042H167.269V65.4301H165.057V58.1898ZM166.629 61.2829H170.517V63.0109H166.629V61.2829ZM175.891 57.2566H178.086V66.7952H175.891V57.2566ZM172.764 57.4813H174.924V66.6742H172.764V57.4813ZM167.234 67.4346H178.086V73.0851H167.234V67.4346ZM175.84 69.2317H169.498V71.2707H175.84V69.2317Z" fill="#A3A3A3"/>
<path d="M20.4272 24.6119H26.5022V51.1647C26.5022 53.6453 25.9622 55.7463 24.8822 57.4675C23.8191 59.2056 22.3256 60.5219 20.4019 61.4163C18.4781 62.3275 16.2422 62.7831 13.6941 62.7831C12.5972 62.7831 11.4075 62.6313 10.125 62.3275C8.85938 62.0238 7.63594 61.5428 6.45469 60.8847C5.29031 60.2434 4.32 59.4081 3.54375 58.3788L6.55594 54.43C7.46719 55.4931 8.49656 56.2947 9.64406 56.8347C10.7916 57.3916 12.0319 57.67 13.365 57.67C14.715 57.67 15.8625 57.4169 16.8075 56.9106C17.7694 56.4213 18.5034 55.6956 19.0097 54.7338C19.5328 53.7888 19.7944 52.6244 19.7944 51.2406V30.8641L20.4272 24.6119ZM1.92375 38.635V38.1034C1.92375 36.0109 2.17688 34.1125 2.68313 32.4081C3.18938 30.6869 3.915 29.2103 4.86 27.9784C5.82188 26.7466 6.97781 25.7931 8.32781 25.1181C9.69469 24.4431 11.2303 24.1056 12.9347 24.1056C14.7403 24.1056 16.2591 24.4347 17.4909 25.0928C18.7397 25.7509 19.7691 26.6875 20.5791 27.9025C21.4059 29.1175 22.0472 30.5603 22.5028 32.2309C22.9753 33.8847 23.3381 35.7072 23.5913 37.6984V39.1412C23.355 41.0819 22.9753 42.8622 22.4522 44.4822C21.9459 46.1022 21.2709 47.5197 20.4272 48.7347C19.5834 49.9328 18.5372 50.8609 17.2884 51.5191C16.0397 52.1772 14.5716 52.5063 12.8841 52.5063C11.1966 52.5063 9.67781 52.1603 8.32781 51.4684C6.97781 50.7766 5.82188 49.8062 4.86 48.5575C3.915 47.3087 3.18938 45.8406 2.68313 44.1531C2.17688 42.4656 1.92375 40.6262 1.92375 38.635ZM8.60625 38.1034V38.635C8.60625 39.8162 8.72438 40.9216 8.96063 41.9509C9.19688 42.9803 9.55969 43.8916 10.0491 44.6847C10.5384 45.4609 11.1544 46.0684 11.8969 46.5072C12.6394 46.9459 13.5253 47.1653 14.5547 47.1653C15.9384 47.1653 17.0691 46.8784 17.9466 46.3047C18.8409 45.7141 19.5159 44.9125 19.9716 43.9C20.4441 42.8706 20.7478 41.7147 20.8828 40.4322V36.4581C20.7984 35.4456 20.6128 34.5091 20.3259 33.6484C20.0559 32.7878 19.6763 32.0453 19.1869 31.4209C18.6975 30.7966 18.0731 30.3072 17.3138 29.9528C16.5544 29.5984 15.6516 29.4212 14.6053 29.4212C13.5928 29.4212 12.7069 29.6491 11.9475 30.1047C11.1881 30.5434 10.5638 31.1594 10.0744 31.9525C9.585 32.7456 9.21375 33.6653 8.96063 34.7116C8.72438 35.7578 8.60625 36.8884 8.60625 38.1034ZM39.6141 13.12V52H32.9063V13.12H39.6141ZM44.8031 38.5844V38.0528C44.8031 36.0447 45.09 34.1969 45.6638 32.5094C46.2375 30.805 47.0728 29.3284 48.1697 28.0797C49.2666 26.8309 50.6081 25.8606 52.1944 25.1687C53.7806 24.46 55.5863 24.1056 57.6113 24.1056C59.67 24.1056 61.4925 24.46 63.0788 25.1687C64.6819 25.8606 66.0319 26.8309 67.1288 28.0797C68.2256 29.3284 69.0609 30.805 69.6347 32.5094C70.2084 34.1969 70.4953 36.0447 70.4953 38.0528V38.5844C70.4953 40.5756 70.2084 42.4234 69.6347 44.1278C69.0609 45.8153 68.2256 47.2919 67.1288 48.5575C66.0319 49.8062 64.6903 50.7766 63.1041 51.4684C61.5178 52.1603 59.7038 52.5063 57.6619 52.5063C55.6369 52.5063 53.8228 52.1603 52.2197 51.4684C50.6166 50.7766 49.2666 49.8062 48.1697 48.5575C47.0728 47.2919 46.2375 45.8153 45.6638 44.1278C45.09 42.4234 44.8031 40.5756 44.8031 38.5844ZM51.4856 38.0528V38.5844C51.4856 39.7825 51.6038 40.9047 51.84 41.9509C52.0763 42.9972 52.4391 43.9169 52.9284 44.71C53.4178 45.5031 54.0506 46.1275 54.8269 46.5831C55.62 47.0219 56.565 47.2412 57.6619 47.2412C58.7419 47.2412 59.67 47.0219 60.4463 46.5831C61.2225 46.1275 61.8553 45.5031 62.3447 44.71C62.8509 43.9169 63.2222 42.9972 63.4584 41.9509C63.6947 40.9047 63.8128 39.7825 63.8128 38.5844V38.0528C63.8128 36.8716 63.6947 35.7662 63.4584 34.7369C63.2222 33.6906 62.8509 32.7709 62.3447 31.9778C61.8553 31.1678 61.2141 30.535 60.4209 30.0794C59.6447 29.6069 58.7081 29.3706 57.6113 29.3706C56.5313 29.3706 55.6031 29.6069 54.8269 30.0794C54.0506 30.535 53.4178 31.1678 52.9284 31.9778C52.4391 32.7709 52.0763 33.6906 51.84 34.7369C51.6038 35.7662 51.4856 36.8716 51.4856 38.0528ZM75.33 13.12H82.0378V45.9503L81.3797 52H75.33V13.12ZM99.6553 38.0275V38.5591C99.6553 40.6009 99.4275 42.4741 98.9719 44.1784C98.5331 45.8828 97.8666 47.3594 96.9722 48.6081C96.0778 49.84 94.9641 50.8019 93.6309 51.4937C92.3147 52.1688 90.7706 52.5063 88.9988 52.5063C87.3113 52.5063 85.8431 52.1772 84.5944 51.5191C83.3625 50.8609 82.3247 49.9328 81.4809 48.7347C80.6372 47.5197 79.9622 46.0937 79.4559 44.4569C78.9497 42.8031 78.57 40.9975 78.3169 39.04V37.5972C78.57 35.6228 78.9497 33.8172 79.4559 32.1803C79.9622 30.5434 80.6372 29.1175 81.4809 27.9025C82.3247 26.6875 83.3625 25.7509 84.5944 25.0928C85.8263 24.4347 87.2775 24.1056 88.9481 24.1056C90.7369 24.1056 92.2978 24.4516 93.6309 25.1434C94.9809 25.8184 96.0947 26.7803 96.9722 28.0291C97.8666 29.2609 98.5331 30.7291 98.9719 32.4334C99.4275 34.1209 99.6553 35.9856 99.6553 38.0275ZM92.9475 38.5591V38.0275C92.9475 36.8631 92.8547 35.7662 92.6691 34.7369C92.4834 33.6906 92.1797 32.7709 91.7578 31.9778C91.3359 31.1847 90.7622 30.5603 90.0366 30.1047C89.3109 29.6491 88.3997 29.4212 87.3028 29.4212C86.2566 29.4212 85.3622 29.5984 84.6197 29.9528C83.8941 30.3072 83.2866 30.7966 82.7972 31.4209C82.3247 32.0453 81.9534 32.7794 81.6834 33.6231C81.4303 34.4669 81.2616 35.3781 81.1772 36.3569V40.3056C81.2953 41.605 81.5738 42.7778 82.0125 43.8241C82.4513 44.8534 83.1009 45.6719 83.9616 46.2794C84.8391 46.8869 85.9697 47.1906 87.3534 47.1906C88.4334 47.1906 89.3363 46.9797 90.0619 46.5578C90.7875 46.1191 91.3613 45.5116 91.7831 44.7353C92.205 43.9422 92.5003 43.0225 92.6691 41.9762C92.8547 40.93 92.9475 39.7909 92.9475 38.5591ZM119.602 46.1781V33.5472C119.602 32.6191 119.441 31.8175 119.121 31.1425C118.8 30.4675 118.311 29.9444 117.653 29.5731C116.994 29.2019 116.159 29.0162 115.147 29.0162C114.252 29.0162 113.468 29.1681 112.793 29.4719C112.134 29.7756 111.628 30.2059 111.274 30.7628C110.919 31.3028 110.742 31.9272 110.742 32.6359H104.034C104.034 31.5053 104.304 30.4337 104.844 29.4212C105.384 28.3919 106.152 27.4806 107.148 26.6875C108.16 25.8775 109.367 25.2447 110.768 24.7891C112.185 24.3334 113.771 24.1056 115.526 24.1056C117.602 24.1056 119.45 24.46 121.07 25.1687C122.707 25.8606 123.989 26.9069 124.917 28.3075C125.862 29.7081 126.335 31.4716 126.335 33.5978V45.5453C126.335 46.9122 126.419 48.085 126.588 49.0637C126.773 50.0256 127.043 50.8609 127.398 51.5697V52H120.589C120.268 51.3081 120.023 50.4306 119.855 49.3675C119.686 48.2875 119.602 47.2244 119.602 46.1781ZM120.538 35.3191L120.589 39.2931H116.362C115.315 39.2931 114.396 39.4028 113.603 39.6222C112.809 39.8247 112.16 40.1284 111.653 40.5334C111.147 40.9216 110.768 41.3941 110.514 41.9509C110.261 42.4909 110.135 43.1069 110.135 43.7987C110.135 44.4737 110.287 45.0812 110.59 45.6212C110.911 46.1612 111.367 46.5916 111.957 46.9122C112.565 47.2159 113.273 47.3678 114.083 47.3678C115.265 47.3678 116.294 47.1316 117.172 46.6591C118.049 46.1697 118.733 45.5791 119.222 44.8872C119.711 44.1953 119.973 43.5372 120.007 42.9128L121.93 45.7984C121.694 46.4903 121.34 47.2244 120.867 48.0006C120.395 48.7769 119.787 49.5025 119.045 50.1775C118.302 50.8525 117.408 51.4094 116.362 51.8481C115.315 52.2869 114.1 52.5063 112.717 52.5063C110.945 52.5063 109.358 52.1519 107.958 51.4431C106.557 50.7344 105.452 49.7641 104.642 48.5322C103.832 47.3003 103.427 45.8997 103.427 44.3303C103.427 42.8791 103.697 41.5966 104.237 40.4828C104.777 39.3691 105.578 38.4325 106.642 37.6731C107.705 36.8969 109.021 36.3147 110.59 35.9266C112.177 35.5216 113.991 35.3191 116.033 35.3191H120.538ZM139.447 13.12V52H132.739V13.12H139.447ZM152.913 24.6119V52H146.205V24.6119H152.913ZM145.749 17.4484C145.749 16.4528 146.087 15.6259 146.762 14.9678C147.454 14.3097 148.382 13.9806 149.546 13.9806C150.711 13.9806 151.63 14.3097 152.305 14.9678C152.997 15.6259 153.343 16.4528 153.343 17.4484C153.343 18.4272 152.997 19.2456 152.305 19.9037C151.63 20.5619 150.711 20.8909 149.546 20.8909C148.382 20.8909 147.454 20.5619 146.762 19.9037C146.087 19.2456 145.749 18.4272 145.749 17.4484ZM165.848 30.4591V52H159.165V24.6119H165.443L165.848 30.4591ZM164.784 37.3187H162.81C162.827 35.3275 163.097 33.5219 163.62 31.9019C164.143 30.2819 164.877 28.8897 165.822 27.7253C166.784 26.5609 167.923 25.6666 169.239 25.0422C170.556 24.4178 172.024 24.1056 173.644 24.1056C174.96 24.1056 176.15 24.2912 177.213 24.6625C178.276 25.0337 179.187 25.6244 179.947 26.4344C180.723 27.2444 181.313 28.3075 181.718 29.6237C182.14 30.9231 182.351 32.5262 182.351 34.4331V52H175.618V34.3825C175.618 33.1337 175.433 32.1466 175.061 31.4209C174.707 30.6953 174.184 30.1806 173.492 29.8769C172.817 29.5731 171.982 29.4212 170.986 29.4212C169.957 29.4212 169.054 29.6322 168.278 30.0541C167.518 30.4591 166.877 31.0244 166.354 31.75C165.848 32.4756 165.459 33.3109 165.189 34.2559C164.919 35.2009 164.784 36.2219 164.784 37.3187Z" fill="white"/>
</svg>
