<svg width="33" height="33" viewBox="0 0 33 33" fill="none" xmlns="http://www.w3.org/2000/svg">
<rect width="33" height="33" fill="white"/>
<rect width="33" height="33" fill="#1D232A"/>
<path d="M28.875 6.1875H4.125C3.8515 6.1875 3.58919 6.29615 3.3958 6.48955C3.2024 6.68294 3.09375 6.94525 3.09375 7.21875V24.75C3.09375 25.297 3.31105 25.8216 3.69784 26.2084C4.08464 26.5952 4.60924 26.8125 5.15625 26.8125H27.8438C28.3908 26.8125 28.9154 26.5952 29.3022 26.2084C29.689 25.8216 29.9062 25.297 29.9062 24.75V7.21875C29.9062 6.94525 29.7976 6.68294 29.6042 6.48955C29.4108 6.29615 29.1485 6.1875 28.875 6.1875ZM5.15625 14.4375H10.3125V18.5625H5.15625V14.4375ZM12.375 14.4375H27.8438V18.5625H12.375V14.4375ZM5.15625 20.625H10.3125V24.75H5.15625V20.625ZM27.8438 24.75H12.375V20.625H27.8438V24.75Z" fill="white"/>
</svg>
